<mxfile host="app.diagrams.net" agent="Mozilla/5.0 (Windows NT 10.0; Win64; x64) AppleWebKit/537.36 (KHTML, like Gecko) Chrome/131.0.0.0 Safari/537.36" version="25.0.3">
  <diagram name="Page-1" id="UU7YhJtbcqi2S22hzCMN">
    <mxGraphModel dx="1195" dy="622" grid="1" gridSize="10" guides="1" tooltips="1" connect="1" arrows="1" fold="1" page="1" pageScale="1" pageWidth="850" pageHeight="1100" math="0" shadow="0">
      <root>
        <mxCell id="0" />
        <mxCell id="1" parent="0" />
        <mxCell id="RHZSQhrXnMww-pnzmG4u-6" style="edgeStyle=orthogonalEdgeStyle;rounded=0;orthogonalLoop=1;jettySize=auto;html=1;entryX=0.5;entryY=0;entryDx=0;entryDy=0;" edge="1" parent="1" source="RHZSQhrXnMww-pnzmG4u-1" target="RHZSQhrXnMww-pnzmG4u-3">
          <mxGeometry relative="1" as="geometry" />
        </mxCell>
        <mxCell id="RHZSQhrXnMww-pnzmG4u-1" value="&lt;font style=&quot;font-size: 24px;&quot;&gt;start&lt;/font&gt;" style="strokeWidth=2;html=1;shape=mxgraph.flowchart.start_1;whiteSpace=wrap;" vertex="1" parent="1">
          <mxGeometry x="375" y="40" width="100" height="60" as="geometry" />
        </mxCell>
        <mxCell id="RHZSQhrXnMww-pnzmG4u-2" value="&lt;font style=&quot;font-size: 24px;&quot;&gt;end&lt;/font&gt;" style="strokeWidth=2;html=1;shape=mxgraph.flowchart.start_1;whiteSpace=wrap;" vertex="1" parent="1">
          <mxGeometry x="375" y="380" width="100" height="60" as="geometry" />
        </mxCell>
        <mxCell id="RHZSQhrXnMww-pnzmG4u-7" style="edgeStyle=orthogonalEdgeStyle;rounded=0;orthogonalLoop=1;jettySize=auto;html=1;entryX=0.5;entryY=0;entryDx=0;entryDy=0;" edge="1" parent="1" source="RHZSQhrXnMww-pnzmG4u-3" target="RHZSQhrXnMww-pnzmG4u-4">
          <mxGeometry relative="1" as="geometry" />
        </mxCell>
        <mxCell id="RHZSQhrXnMww-pnzmG4u-3" value="output&lt;br&gt;&quot;Enter your name: &quot;" style="shape=parallelogram;perimeter=parallelogramPerimeter;whiteSpace=wrap;html=1;fixedSize=1;" vertex="1" parent="1">
          <mxGeometry x="349.5" y="140" width="152" height="30" as="geometry" />
        </mxCell>
        <mxCell id="RHZSQhrXnMww-pnzmG4u-8" style="edgeStyle=orthogonalEdgeStyle;rounded=0;orthogonalLoop=1;jettySize=auto;html=1;entryX=0.5;entryY=0;entryDx=0;entryDy=0;" edge="1" parent="1" source="RHZSQhrXnMww-pnzmG4u-4" target="RHZSQhrXnMww-pnzmG4u-5">
          <mxGeometry relative="1" as="geometry" />
        </mxCell>
        <mxCell id="RHZSQhrXnMww-pnzmG4u-4" value="fgets(name, sizeof(name), stdin)" style="rounded=1;whiteSpace=wrap;html=1;absoluteArcSize=1;arcSize=14;strokeWidth=2;" vertex="1" parent="1">
          <mxGeometry x="338" y="220" width="175" height="40" as="geometry" />
        </mxCell>
        <mxCell id="RHZSQhrXnMww-pnzmG4u-5" value="output&lt;br&gt;&lt;div&gt;&quot;Name :&quot;, name&lt;/div&gt;" style="shape=parallelogram;perimeter=parallelogramPerimeter;whiteSpace=wrap;html=1;fixedSize=1;" vertex="1" parent="1">
          <mxGeometry x="349" y="310" width="152" height="30" as="geometry" />
        </mxCell>
        <mxCell id="RHZSQhrXnMww-pnzmG4u-9" style="edgeStyle=orthogonalEdgeStyle;rounded=0;orthogonalLoop=1;jettySize=auto;html=1;entryX=0.5;entryY=0;entryDx=0;entryDy=0;entryPerimeter=0;" edge="1" parent="1" source="RHZSQhrXnMww-pnzmG4u-5" target="RHZSQhrXnMww-pnzmG4u-2">
          <mxGeometry relative="1" as="geometry" />
        </mxCell>
      </root>
    </mxGraphModel>
  </diagram>
</mxfile>
